<svg width="29" height="29" viewBox="0 0 29 29" fill="none" xmlns="http://www.w3.org/2000/svg">
<g clip-path="url(#clip0_32_1650)">
<path fill-rule="evenodd" clip-rule="evenodd" d="M8.511 0.177957C6.15057 0.28446 4.10468 0.861555 2.45267 2.50659C0.794882 4.16028 0.224955 6.21427 0.118187 8.55015C0.0518178 10.0081 -0.336275 21.0225 0.789113 23.9111C1.54803 25.8598 3.04274 27.3581 5.00928 28.1195C5.92691 28.4764 6.97441 28.718 8.511 28.7886C21.3592 29.37 26.1219 29.0535 28.1303 23.9111C28.4866 22.9957 28.7319 21.9491 28.7997 20.4164C29.3869 7.53523 28.7045 4.74316 26.4653 2.50659C24.6892 0.734898 22.6 -0.471135 8.511 0.177957ZM8.62928 26.198C7.22255 26.1346 6.45931 25.9002 5.95 25.7031C4.66879 25.2051 3.70644 24.2467 3.21156 22.973C2.35454 20.7781 2.63878 10.3538 2.71525 8.66697C2.79027 7.01472 3.125 5.50469 4.29079 4.33892C5.73359 2.89968 7.59768 2.19432 20.29 2.76714C21.9464 2.84198 23.4599 3.17602 24.6286 4.33892C26.0714 5.77815 26.787 7.65658 26.2041 20.3002C26.1406 21.7035 25.9055 22.4649 25.7078 22.973C24.4021 26.3192 21.3981 26.7837 8.62928 26.198ZM20.43 6.79995C20.43 7.75273 21.2048 8.52749 22.1614 8.52749C23.118 8.52749 23.8942 7.75273 23.8942 6.79995C23.8942 5.84719 23.118 5.07312 22.1614 5.07312C21.2048 5.07312 20.43 5.84719 20.43 6.79995ZM7.05087 14.4825C7.05087 18.5642 10.3679 21.8734 14.4597 21.8734C18.5515 21.8734 21.8685 18.5642 21.8685 14.4825C21.8685 10.4009 18.5515 7.09378 14.4597 7.09378C10.3679 7.09378 7.05087 10.4009 7.05087 14.4825ZM9.6508 14.4825C9.6508 11.8344 11.8035 9.68579 14.4597 9.68579C17.1159 9.68579 19.2686 11.8344 19.2686 14.4825C19.2686 17.1322 17.1159 19.2814 14.4597 19.2814C11.8035 19.2814 9.6508 17.1322 9.6508 14.4825Z" fill="white"/>
</g>
<defs>
<clipPath id="clip0_32_1650">
<rect width="29" height="29" fill="white"/>
</clipPath>
</defs>
</svg>
