<svg width="30" height="30" viewBox="0 0 30 30" fill="none" xmlns="http://www.w3.org/2000/svg">
<g clip-path="url(#clip0_32_1648)">
<path d="M20.7386 9.4125C20.7442 9.4125 20.7517 9.4125 20.7592 9.4125C20.9552 9.4125 21.137 9.47344 21.2861 9.57844L21.2833 9.57656C21.392 9.67125 21.4652 9.80438 21.483 9.95438V9.95719C21.5017 10.0716 21.512 10.2028 21.512 10.3369C21.512 10.3978 21.5102 10.4578 21.5055 10.5178V10.5094C21.2945 12.7303 20.3795 18.1163 19.9145 20.6025C19.7177 21.6553 19.3305 22.0078 18.9555 22.0416C18.1408 22.1175 17.522 21.5034 16.7327 20.9859C15.497 20.175 14.7986 19.6706 13.5995 18.8803C12.213 17.9681 13.112 17.4647 13.9014 16.6453C14.1086 16.4297 17.7002 13.1625 17.7705 12.8663C17.7742 12.8484 17.7761 12.8288 17.7761 12.8081C17.7761 12.735 17.7489 12.6684 17.7048 12.6178C17.6561 12.5859 17.5952 12.5681 17.5314 12.5681C17.4892 12.5681 17.4489 12.5766 17.4114 12.5906L17.4133 12.5897C17.2895 12.6178 15.3158 13.9222 11.492 16.5028C11.0748 16.8319 10.548 17.04 9.97422 17.0644H9.96859C9.15578 16.9659 8.41797 16.785 7.71766 16.5272L7.78703 16.5497C6.90766 16.2628 6.20922 16.1119 6.26922 15.6262C6.30109 15.3737 6.64922 15.1153 7.31359 14.8509C11.4061 13.0678 14.1352 11.8925 15.5008 11.325C17.0073 10.5253 18.7539 9.86719 20.5905 9.44063L20.7377 9.41156L20.7386 9.4125ZM14.9336 0.960938C7.15047 0.979687 0.847656 7.29375 0.847656 15.0797C0.847656 22.8769 7.16828 29.1984 14.9664 29.1984C22.7645 29.1984 29.0852 22.8778 29.0852 15.0797C29.0852 7.29375 22.7823 0.979687 15.0011 0.960938H14.9992C14.9773 0.960938 14.9555 0.960938 14.9336 0.960938Z" fill="white"/>
</g>
<defs>
<clipPath id="clip0_32_1648">
<rect width="30" height="30" fill="white"/>
</clipPath>
</defs>
</svg>
